<svg id="SvgjsSvg1616" width="992" height="947" xmlns="http://www.w3.org/2000/svg" version="1.1" xmlns:xlink="http://www.w3.org/1999/xlink" xmlns:svgjs="http://svgjs.com/svgjs"><defs id="SvgjsDefs1617"><marker id="SvgjsMarker1662" markerWidth="12" markerHeight="8" refX="9" refY="4" viewBox="0 0 12 8" orient="auto" markerUnits="userSpaceOnUse" stroke-dasharray="0,0"><path id="SvgjsPath1663" d="M0,0 L12,4 L0,8 L0,0" fill="#000000" stroke="#000000" stroke-width="1"></path></marker><marker id="SvgjsMarker1689" markerWidth="14" markerHeight="10" refX="10" refY="5" viewBox="0 0 14 10" orient="auto" markerUnits="userSpaceOnUse" stroke-dasharray="0,0"><path id="SvgjsPath1690" d="M0,0 L14,5 L0,10 L0,0" fill="#323232" stroke="#323232" stroke-width="1"></path></marker><marker id="SvgjsMarker1693" markerWidth="14" markerHeight="10" refX="10" refY="5" viewBox="0 0 14 10" orient="auto" markerUnits="userSpaceOnUse" stroke-dasharray="0,0"><path id="SvgjsPath1694" d="M0,0 L14,5 L0,10 L0,0" fill="#323232" stroke="#323232" stroke-width="1"></path></marker><marker id="SvgjsMarker1701" markerWidth="14" markerHeight="10" refX="10" refY="5" viewBox="0 0 14 10" orient="auto" markerUnits="userSpaceOnUse" stroke-dasharray="0,0"><path id="SvgjsPath1702" d="M0,0 L14,5 L0,10 L0,0" fill="#323232" stroke="#323232" stroke-width="1"></path></marker><marker id="SvgjsMarker1717" markerWidth="14" markerHeight="10" refX="10" refY="5" viewBox="0 0 14 10" orient="auto" markerUnits="userSpaceOnUse" stroke-dasharray="0,0"><path id="SvgjsPath1718" d="M0,0 L14,5 L0,10 L0,0" fill="#323232" stroke="#323232" stroke-width="1"></path></marker><marker id="SvgjsMarker1725" markerWidth="14" markerHeight="10" refX="10" refY="5" viewBox="0 0 14 10" orient="auto" markerUnits="userSpaceOnUse" stroke-dasharray="0,0"><path id="SvgjsPath1726" d="M0,0 L14,5 L0,10 L0,0" fill="#323232" stroke="#323232" stroke-width="1"></path></marker><marker id="SvgjsMarker1729" markerWidth="14" markerHeight="10" refX="10" refY="5" viewBox="0 0 14 10" orient="auto" markerUnits="userSpaceOnUse" stroke-dasharray="0,0"><path id="SvgjsPath1730" d="M0,0 L14,5 L0,10 L0,0" fill="#323232" stroke="#323232" stroke-width="1"></path></marker><marker id="SvgjsMarker1743" markerWidth="14" markerHeight="10" refX="10" refY="5" viewBox="0 0 14 10" orient="auto" markerUnits="userSpaceOnUse" stroke-dasharray="0,0"><path id="SvgjsPath1744" d="M0,0 L14,5 L0,10 L0,0" fill="#323232" stroke="#323232" stroke-width="1"></path></marker><marker id="SvgjsMarker1751" markerWidth="14" markerHeight="10" refX="10" refY="5" viewBox="0 0 14 10" orient="auto" markerUnits="userSpaceOnUse" stroke-dasharray="0,0"><path id="SvgjsPath1752" d="M0,0 L14,5 L0,10 L0,0" fill="#323232" stroke="#323232" stroke-width="1"></path></marker><marker id="SvgjsMarker1761" markerWidth="14" markerHeight="10" refX="10" refY="5" viewBox="0 0 14 10" orient="auto" markerUnits="userSpaceOnUse" stroke-dasharray="0,0"><path id="SvgjsPath1762" d="M0,0 L14,5 L0,10 L0,0" fill="#323232" stroke="#323232" stroke-width="1"></path></marker><marker id="SvgjsMarker1773" markerWidth="14" markerHeight="10" refX="10" refY="5" viewBox="0 0 14 10" orient="auto" markerUnits="userSpaceOnUse" stroke-dasharray="0,0"><path id="SvgjsPath1774" d="M0,0 L14,5 L0,10 L0,0" fill="#323232" stroke="#323232" stroke-width="1"></path></marker><marker id="SvgjsMarker1783" markerWidth="14" markerHeight="10" refX="10" refY="5" viewBox="0 0 14 10" orient="auto" markerUnits="userSpaceOnUse" stroke-dasharray="0,0"><path id="SvgjsPath1784" d="M0,0 L14,5 L0,10 L0,0" fill="#323232" stroke="#323232" stroke-width="1"></path></marker><marker id="SvgjsMarker1787" markerWidth="14" markerHeight="10" refX="10" refY="5" viewBox="0 0 14 10" orient="auto" markerUnits="userSpaceOnUse" stroke-dasharray="0,0"><path id="SvgjsPath1788" d="M0,0 L14,5 L0,10 L0,0" fill="#323232" stroke="#323232" stroke-width="1"></path></marker><marker id="SvgjsMarker1795" markerWidth="14" markerHeight="10" refX="10" refY="5" viewBox="0 0 14 10" orient="auto" markerUnits="userSpaceOnUse" stroke-dasharray="0,0"><path id="SvgjsPath1796" d="M0,0 L14,5 L0,10 L0,0" fill="#323232" stroke="#323232" stroke-width="1"></path></marker><marker id="SvgjsMarker1807" markerWidth="14" markerHeight="10" refX="10" refY="5" viewBox="0 0 14 10" orient="auto" markerUnits="userSpaceOnUse" stroke-dasharray="0,0"><path id="SvgjsPath1808" d="M0,0 L14,5 L0,10 L0,0" fill="#323232" stroke="#323232" stroke-width="1"></path></marker><marker id="SvgjsMarker1815" markerWidth="14" markerHeight="10" refX="10" refY="5" viewBox="0 0 14 10" orient="auto" markerUnits="userSpaceOnUse" stroke-dasharray="0,0"><path id="SvgjsPath1816" d="M0,0 L14,5 L0,10 L0,0" fill="#323232" stroke="#323232" stroke-width="1"></path></marker><marker id="SvgjsMarker1819" markerWidth="14" markerHeight="10" refX="10" refY="5" viewBox="0 0 14 10" orient="auto" markerUnits="userSpaceOnUse" stroke-dasharray="0,0"><path id="SvgjsPath1820" d="M0,0 L14,5 L0,10 L0,0" fill="#323232" stroke="#323232" stroke-width="1"></path></marker><marker id="SvgjsMarker1833" markerWidth="14" markerHeight="10" refX="10" refY="5" viewBox="0 0 14 10" orient="auto" markerUnits="userSpaceOnUse" stroke-dasharray="0,0"><path id="SvgjsPath1834" d="M0,0 L14,5 L0,10 L0,0" fill="#323232" stroke="#323232" stroke-width="1"></path></marker><marker id="SvgjsMarker1841" markerWidth="14" markerHeight="10" refX="10" refY="5" viewBox="0 0 14 10" orient="auto" markerUnits="userSpaceOnUse" stroke-dasharray="0,0"><path id="SvgjsPath1842" d="M0,0 L14,5 L0,10 L0,0" fill="#323232" stroke="#323232" stroke-width="1"></path></marker><marker id="SvgjsMarker1849" markerWidth="14" markerHeight="10" refX="10" refY="5" viewBox="0 0 14 10" orient="auto" markerUnits="userSpaceOnUse" stroke-dasharray="0,0"><path id="SvgjsPath1850" d="M0,0 L14,5 L0,10 L0,0" fill="#323232" stroke="#323232" stroke-width="1"></path></marker><marker id="SvgjsMarker1857" markerWidth="14" markerHeight="10" refX="10" refY="5" viewBox="0 0 14 10" orient="auto" markerUnits="userSpaceOnUse" stroke-dasharray="0,0"><path id="SvgjsPath1858" d="M0,0 L14,5 L0,10 L0,0" fill="#323232" stroke="#323232" stroke-width="1"></path></marker><marker id="SvgjsMarker1867" markerWidth="14" markerHeight="10" refX="10" refY="5" viewBox="0 0 14 10" orient="auto" markerUnits="userSpaceOnUse" stroke-dasharray="0,0"><path id="SvgjsPath1868" d="M0,0 L14,5 L0,10 L0,0" fill="#323232" stroke="#323232" stroke-width="1"></path></marker><marker id="SvgjsMarker1879" markerWidth="14" markerHeight="10" refX="10" refY="5" viewBox="0 0 14 10" orient="auto" markerUnits="userSpaceOnUse" stroke-dasharray="0,0"><path id="SvgjsPath1880" d="M0,0 L14,5 L0,10 L0,0" fill="#323232" stroke="#323232" stroke-width="1"></path></marker><marker id="SvgjsMarker1887" markerWidth="14" markerHeight="10" refX="10" refY="5" viewBox="0 0 14 10" orient="auto" markerUnits="userSpaceOnUse" stroke-dasharray="0,0"><path id="SvgjsPath1888" d="M0,0 L14,5 L0,10 L0,0" fill="#323232" stroke="#323232" stroke-width="1"></path></marker><marker id="SvgjsMarker1895" markerWidth="14" markerHeight="10" refX="10" refY="5" viewBox="0 0 14 10" orient="auto" markerUnits="userSpaceOnUse" stroke-dasharray="0,0"><path id="SvgjsPath1896" d="M0,0 L14,5 L0,10 L0,0" fill="#323232" stroke="#323232" stroke-width="1"></path></marker><marker id="SvgjsMarker1899" markerWidth="14" markerHeight="10" refX="10" refY="5" viewBox="0 0 14 10" orient="auto" markerUnits="userSpaceOnUse" stroke-dasharray="0,0"><path id="SvgjsPath1900" d="M0,0 L14,5 L0,10 L0,0" fill="#323232" stroke="#323232" stroke-width="1"></path></marker><marker id="SvgjsMarker1913" markerWidth="14" markerHeight="10" refX="10" refY="5" viewBox="0 0 14 10" orient="auto" markerUnits="userSpaceOnUse" stroke-dasharray="0,0"><path id="SvgjsPath1914" d="M0,0 L14,5 L0,10 L0,0" fill="#323232" stroke="#323232" stroke-width="1"></path></marker><marker id="SvgjsMarker1921" markerWidth="14" markerHeight="10" refX="10" refY="5" viewBox="0 0 14 10" orient="auto" markerUnits="userSpaceOnUse" stroke-dasharray="0,0"><path id="SvgjsPath1922" d="M0,0 L14,5 L0,10 L0,0" fill="#323232" stroke="#323232" stroke-width="1"></path></marker></defs><g id="SvgjsG1618" transform="translate(25,25)"><path id="SvgjsPath1619" d="M 0 4Q 0 0 4 0L 938 0Q 942 0 942 4L 942 893Q 942 897 938 897L 4 897Q 0 897 0 893Z" stroke="rgba(50,50,50,1)" stroke-width="1" fill-opacity="1" fill="#ffffff"></path><g id="SvgjsG1620"><text id="SvgjsText1621" font-family="微软雅黑" text-anchor="middle" font-size="13px" width="922px" fill="#323232" font-weight="400" align="middle" lineHeight="125%" anchor="middle" family="微软雅黑" size="13px" weight="400" font-style="" opacity="1" y="437.375" transform="rotate(0)"></text></g></g><g id="SvgjsG1622" transform="translate(134,671)"><path id="SvgjsPath1623" d="M 0 0L 716 0L 716 237L 0 237Z" stroke="rgba(50,50,50,1)" stroke-width="2" fill-opacity="1" fill="#ffffff"></path><g id="SvgjsG1624"><text id="SvgjsText1625" font-family="微软雅黑" text-anchor="middle" font-size="12px" width="696px" fill="#323232" font-weight="400" align="middle" lineHeight="125%" anchor="middle" family="微软雅黑" size="12px" weight="400" font-style="" opacity="1" y="108.5" transform="rotate(0)"></text></g></g><g id="SvgjsG1626" transform="translate(134,671)"><path id="SvgjsPath1627" d="M 0 0L 95.5 0L 109 13.5L 95.5 27L 0 27L 0 0Z" stroke="rgba(50,50,50,1)" stroke-width="2" fill-opacity="1" fill="#ffffff"></path><g id="SvgjsG1628"><text id="SvgjsText1629" font-family="微软雅黑" text-anchor="middle" font-size="12px" width="77px" fill="#323232" font-weight="400" align="middle" lineHeight="125%" anchor="middle" family="微软雅黑" size="12px" weight="400" font-style="" opacity="1" y="4.5" transform="rotate(0)"><tspan id="SvgjsTspan1630" dy="15" x="49.4"><tspan id="SvgjsTspan1631" style="text-decoration:;">Burn - Redeem</tspan></tspan></text></g></g><g id="SvgjsG1632" transform="translate(134,404)"><path id="SvgjsPath1633" d="M 0 0L 716 0L 716 237L 0 237Z" stroke="rgba(50,50,50,1)" stroke-width="2" fill-opacity="1" fill="#ffffff"></path><g id="SvgjsG1634"><text id="SvgjsText1635" font-family="微软雅黑" text-anchor="middle" font-size="13px" width="696px" fill="#323232" font-weight="400" align="middle" lineHeight="125%" anchor="middle" family="微软雅黑" size="13px" weight="400" font-style="" opacity="1" y="107.375" transform="rotate(0)"></text></g></g><g id="SvgjsG1636" transform="translate(134,404)"><path id="SvgjsPath1637" d="M 0 0L 95.5 0L 109 13.5L 95.5 27L 0 27L 0 0Z" stroke="rgba(50,50,50,1)" stroke-width="2" fill-opacity="1" fill="#ffffff"></path><g id="SvgjsG1638"><text id="SvgjsText1639" font-family="微软雅黑" text-anchor="middle" font-size="13px" width="77px" fill="#323232" font-weight="400" align="middle" lineHeight="125%" anchor="middle" family="微软雅黑" size="13px" weight="400" font-style="" opacity="1" y="3.375" transform="rotate(0)"><tspan id="SvgjsTspan1640" dy="16" x="49.4"><tspan id="SvgjsTspan1641" style="text-decoration:;">Lock - Issue</tspan></tspan></text></g></g><g id="SvgjsG1642" transform="translate(134,141)"><path id="SvgjsPath1643" d="M 0 0L 716 0L 716 237L 0 237Z" stroke="rgba(50,50,50,1)" stroke-width="2" fill-opacity="1" fill="#ffffff"></path><g id="SvgjsG1644"><text id="SvgjsText1645" font-family="微软雅黑" text-anchor="middle" font-size="13px" width="696px" fill="#323232" font-weight="400" align="middle" lineHeight="125%" anchor="middle" family="微软雅黑" size="13px" weight="400" font-style="" opacity="1" y="107.375" transform="rotate(0)"></text></g></g><g id="SvgjsG1646" transform="translate(374.14274447949526,95)"><path id="SvgjsPath1647" d="M 46.42507886435328 30L 46.42507886435328 818" stroke-dasharray="3,4" stroke="rgba(0,0,0,1)" stroke-width="2" fill="none"></path><path id="SvgjsPath1648" d="M 0 0L 92.85015772870656 0L 92.85015772870656 30L 0 30Z" stroke="rgba(0,0,0,1)" stroke-width="1" fill-opacity="1" fill="#ffffff"></path><g id="SvgjsG1649"><text id="SvgjsText1650" font-family="微软雅黑" text-anchor="middle" font-size="13px" width="73px" fill="#cc0000" font-weight="700" align="middle" lineHeight="125%" anchor="middle" family="微软雅黑" size="13px" weight="700" font-style="" opacity="1" y="3.875" transform="rotate(0)"><tspan id="SvgjsTspan1651" dy="16" x="46.5"><tspan id="SvgjsTspan1652" style="text-decoration:;">Backing</tspan></tspan></text></g></g><g id="SvgjsG1653" transform="translate(626.8343848580441,95)"><path id="SvgjsPath1654" d="M 48.73343848580441 30L 48.73343848580441 824" stroke-dasharray="3,4" stroke="rgba(0,0,0,1)" stroke-width="2" fill="none"></path><path id="SvgjsPath1655" d="M 0 0L 97.46687697160883 0L 97.46687697160883 30L 0 30Z" stroke="rgba(0,0,0,1)" stroke-width="1" fill-opacity="1" fill="#ffffff"></path><g id="SvgjsG1656"><text id="SvgjsText1657" font-family="微软雅黑" text-anchor="middle" font-size="13px" width="78px" fill="#cc0000" font-weight="700" align="middle" lineHeight="125%" anchor="middle" family="微软雅黑" size="13px" weight="700" font-style="" opacity="1" y="3.875" transform="rotate(0)"><tspan id="SvgjsTspan1658" dy="16" x="49"><tspan id="SvgjsTspan1659" style="text-decoration:;">Issuing</tspan></tspan></text></g></g><g id="SvgjsG1660"><path id="SvgjsPath1661" d="M265 152.52314999290158L337.8793852415718 152.52314999290158L337.8793852415718 152.52314999290158L408.9587704831436 152.52314999290158" stroke="#000000" stroke-width="1" fill="none" marker-end="url(#SvgjsMarker1662)"></path><rect id="SvgjsRect1664" width="92" height="18" x="290.9793852415718" y="143.52314999290158" fill="#ffffff"></rect><text id="SvgjsText1665" font-family="微软雅黑" text-anchor="middle" font-size="14px" width="92px" fill="#000000" font-weight="700" align="top" lineHeight="18px" anchor="middle" family="微软雅黑" size="14px" weight="700" font-style="" opacity="1" y="140.77314999290158" transform="rotate(0)"><tspan id="SvgjsTspan1666" dy="17" x="336.9793852415718"><tspan id="SvgjsTspan1667" style="text-decoration:;">1. register asset</tspan></tspan></text></g><g id="SvgjsG1668" transform="translate(247.5,30.5)"><path id="SvgjsPath1669" d="M 12.333333333333332 5.875C 12.333333333333332 -1.9583333333333333 24.666666666666664 -1.9583333333333333 24.666666666666664 5.875C 24.666666666666664 13.708333333333334 12.333333333333332 13.708333333333334 12.333333333333332 5.875M 18.5 11.75L 18.5 35.25M 18.5 35.25L 3.083333333333333 47M 18.5 35.25L 33.916666666666664 47M 0 23.5L 37 23.5" stroke="rgba(50,50,50,1)" stroke-width="1" fill-opacity="1" fill="#ffffff"></path><path id="SvgjsPath1670" d="M 0 0L 37 0L 37 47L 0 47Z" stroke="none" fill="none"></path><g id="SvgjsG1671"><text id="SvgjsText1672" font-family="微软雅黑" text-anchor="middle" font-size="13px" width="77px" fill="#323232" font-weight="400" align="middle" lineHeight="125%" anchor="middle" family="微软雅黑" size="13px" weight="400" font-style="" opacity="1" y="50.875" transform="rotate(0)"></text></g></g><g id="SvgjsG1673" transform="translate(219.50000000000003,95)"><path id="SvgjsPath1674" d="M 46.49999999999997 30L 46.49999999999997 824" stroke-dasharray="3,4" stroke="rgba(0,0,0,1)" stroke-width="2" fill="none"></path><path id="SvgjsPath1675" d="M 0 0L 92.99999999999994 0L 92.99999999999994 30L 0 30Z" stroke="rgba(0,0,0,1)" stroke-width="1" fill-opacity="1" fill="#ffffff"></path><g id="SvgjsG1676"><text id="SvgjsText1677" font-family="微软雅黑" text-anchor="middle" font-size="13px" width="73px" fill="#cc0000" font-weight="700" align="middle" lineHeight="125%" anchor="middle" family="微软雅黑" size="13px" weight="700" font-style="" opacity="1" y="3.875" transform="rotate(0)"><tspan id="SvgjsTspan1678" dy="16" x="46.5"><tspan id="SvgjsTspan1679" style="text-decoration:;">User</tspan></tspan></text></g></g><g id="SvgjsG1680" transform="translate(495,95)"><path id="SvgjsPath1681" d="M 60.5 30L 60.5 818" stroke-dasharray="3,4" stroke="rgba(50,50,50,1)" stroke-width="2" fill="none"></path><path id="SvgjsPath1682" d="M 0 0L 121 0L 121 30L 0 30Z" stroke="rgba(50,50,50,1)" stroke-width="1" fill-opacity="1" fill="#ffffff"></path><g id="SvgjsG1683"><text id="SvgjsText1684" font-family="微软雅黑" text-anchor="middle" font-size="14px" width="101px" fill="#0000ff" font-weight="700" align="middle" lineHeight="125%" anchor="middle" family="微软雅黑" size="14px" weight="700" font-style="" opacity="1" y="3.25" transform="rotate(0)"><tspan id="SvgjsTspan1685" dy="17" x="60.5"><tspan id="SvgjsTspan1686" style="text-decoration:;">Message Relayer</tspan></tspan></text></g></g><g id="SvgjsG1687"><path id="SvgjsPath1688" d="M410.84415450925655 185.0416721678151L339.6720772546283 185.0416721678151L339.6720772546283 185.0416721678151L268 185.0416721678151" stroke-dasharray="10,5,3,5" stroke="#323232" stroke-width="2" fill="none" marker-end="url(#SvgjsMarker1689)"></path></g><g id="SvgjsG1691"><path id="SvgjsPath1692" d="M555 213.26146722824296L492.5057079528624 213.26146722824296L492.5057079528624 213.26146722824296L433.1114159057248 213.26146722824296" stroke="#323232" stroke-width="2" fill="none" marker-end="url(#SvgjsMarker1693)"></path><rect id="SvgjsRect1695" width="79" height="16" x="454.5557079528624" y="205.26146722824296" fill="#ffffff"></rect><text id="SvgjsText1696" font-family="微软雅黑" text-anchor="middle" font-size="13px" width="79px" fill="#323232" font-weight="700" align="top" lineHeight="16px" anchor="middle" family="微软雅黑" size="13px" weight="700" font-style="" opacity="1" y="202.63646722824296" transform="rotate(0)"><tspan id="SvgjsTspan1697" dy="16" x="494.0557079528624"><tspan id="SvgjsTspan1698" style="text-decoration:;">2. get message</tspan></tspan></text></g><g id="SvgjsG1699"><path id="SvgjsPath1700" d="M430.94887133007336 246.973939570023L491.2244356650367 246.973939570023L491.2244356650367 246.973939570023L552 246.973939570023" stroke-dasharray="10,5,3,5" stroke="#323232" stroke-width="2" fill="none" marker-end="url(#SvgjsMarker1701)"></path></g><g id="SvgjsG1703" transform="translate(410.56782334384854,151)"><path id="SvgjsPath1704" d="M 0 0L 20 0L 20 40L 0 40Z" stroke="rgba(50,50,50,1)" stroke-width="1" fill-opacity="1" fill="#ffffff"></path><g id="SvgjsG1705"><text id="SvgjsText1706" font-family="微软雅黑" text-anchor="middle" font-size="13px" width="0px" fill="#323232" font-weight="400" align="middle" lineHeight="125%" anchor="middle" family="微软雅黑" size="13px" weight="400" font-style="" opacity="1" y="8.875" transform="rotate(0)"></text></g></g><g id="SvgjsG1707" transform="translate(410.56782334384854,211)"><path id="SvgjsPath1708" d="M 0 0L 20 0L 20 40L 0 40Z" stroke="rgba(50,50,50,1)" stroke-width="1" fill-opacity="1" fill="#ffffff"></path><g id="SvgjsG1709"><text id="SvgjsText1710" font-family="微软雅黑" text-anchor="middle" font-size="13px" width="0px" fill="#323232" font-weight="400" align="middle" lineHeight="125%" anchor="middle" family="微软雅黑" size="13px" weight="400" font-style="" opacity="1" y="8.875" transform="rotate(0)"></text></g></g><g id="SvgjsG1711" transform="translate(665.5678233438485,275)"><path id="SvgjsPath1712" d="M 0 0L 20 0L 20 40L 0 40Z" stroke="rgba(50,50,50,1)" stroke-width="1" fill-opacity="1" fill="#ffffff"></path><g id="SvgjsG1713"><text id="SvgjsText1714" font-family="微软雅黑" text-anchor="middle" font-size="13px" width="0px" fill="#323232" font-weight="400" align="middle" lineHeight="125%" anchor="middle" family="微软雅黑" size="13px" weight="400" font-style="" opacity="1" y="8.875" transform="rotate(0)"></text></g></g><g id="SvgjsG1715"><path id="SvgjsPath1716" d="M558 278L611.9488887394336 278L611.9488887394336 278L662.7977774788671 278" stroke="#323232" stroke-width="2" fill="none" marker-end="url(#SvgjsMarker1717)"></path><rect id="SvgjsRect1719" width="52" height="16" x="584.3988887394336" y="270" fill="#ffffff"></rect><text id="SvgjsText1720" font-family="微软雅黑" text-anchor="middle" font-size="13px" width="52px" fill="#323232" font-weight="700" align="top" lineHeight="16px" anchor="middle" family="微软雅黑" size="13px" weight="700" font-style="" opacity="1" y="267.375" transform="rotate(0)"><tspan id="SvgjsTspan1721" dy="16" x="610.3988887394336"><tspan id="SvgjsTspan1722" style="text-decoration:;">3. submit</tspan></tspan></text></g><g id="SvgjsG1723"><path id="SvgjsPath1724" d="M665.1252311481466 307.3095269530372L611.3126155740733 307.3095269530372L611.3126155740733 307.3095269530372L557 307.3095269530372" stroke-dasharray="10,5,3,5" stroke="#323232" stroke-width="2" fill="none" marker-end="url(#SvgjsMarker1725)"></path></g><g id="SvgjsG1727"><path id="SvgjsPath1728" d="M685.5 281L710 281L710 308.65797985667433L688.1 308.65797985667433" stroke="#323232" stroke-width="2" fill="none" marker-end="url(#SvgjsMarker1729)"></path></g><g id="SvgjsG1731" transform="translate(717,282)"><path id="SvgjsPath1732" d="M 0 0L 124 0L 124 26L 0 26Z" stroke="none" fill="none"></path><g id="SvgjsG1733"><text id="SvgjsText1734" font-family="微软雅黑" text-anchor="middle" font-size="13px" width="124px" fill="#323232" font-weight="700" align="middle" lineHeight="125%" anchor="middle" family="微软雅黑" size="13px" weight="700" font-style="" opacity="1" y="1.875" transform="rotate(0)"><tspan id="SvgjsTspan1735" dy="16" x="62"><tspan id="SvgjsTspan1736" style="text-decoration:;">create mapping token</tspan></tspan></text></g></g><g id="SvgjsG1737" transform="translate(410.56782334384854,315)"><path id="SvgjsPath1738" d="M 0 0L 20 0L 20 40L 0 40Z" stroke="rgba(50,50,50,1)" stroke-width="1" fill-opacity="1" fill="#ffffff"></path><g id="SvgjsG1739"><text id="SvgjsText1740" font-family="微软雅黑" text-anchor="middle" font-size="13px" width="0px" fill="#323232" font-weight="400" align="middle" lineHeight="125%" anchor="middle" family="微软雅黑" size="13px" weight="400" font-style="" opacity="1" y="8.875" transform="rotate(0)"></text></g></g><g id="SvgjsG1741"><path id="SvgjsPath1742" d="M556 322L493 322L493 322L433.1 322" stroke="#323232" stroke-width="2" fill="none" marker-end="url(#SvgjsMarker1743)"></path><rect id="SvgjsRect1745" width="91" height="16" x="449.05" y="314" fill="#ffffff"></rect><text id="SvgjsText1746" font-family="微软雅黑" text-anchor="middle" font-size="13px" width="91px" fill="#323232" font-weight="700" align="top" lineHeight="16px" anchor="middle" family="微软雅黑" size="13px" weight="700" font-style="" opacity="1" y="311.375" transform="rotate(0)"><tspan id="SvgjsTspan1747" dy="16" x="494.55"><tspan id="SvgjsTspan1748" style="text-decoration:;">4. confirm result</tspan></tspan></text></g><g id="SvgjsG1749"><path id="SvgjsPath1750" d="M430.6339745962156 350.5L492.5669872981078 350.5L492.5669872981078 350.5L555 350.5" stroke-dasharray="10,5,3,5" stroke="#323232" stroke-width="2" fill="none" marker-end="url(#SvgjsMarker1751)"></path></g><g id="SvgjsG1753" transform="translate(134,141)"><path id="SvgjsPath1754" d="M 0 0L 62.5 0L 74 11.5L 62.5 23L 0 23L 0 0Z" stroke="rgba(50,50,50,1)" stroke-width="2" fill-opacity="1" fill="#ffffff"></path><g id="SvgjsG1755"><text id="SvgjsText1756" font-family="微软雅黑" text-anchor="middle" font-size="13px" width="50px" fill="#323232" font-weight="400" align="middle" lineHeight="125%" anchor="middle" family="微软雅黑" size="13px" weight="400" font-style="" opacity="1" y="1.375" transform="rotate(0)"><tspan id="SvgjsTspan1757" dy="16" x="32.4"><tspan id="SvgjsTspan1758" style="text-decoration:;">Register</tspan></tspan></text></g></g><g id="SvgjsG1759"><path id="SvgjsPath1760" d="M265 441L338 441L338 441L407.9 441" stroke="#323232" stroke-width="2" fill="none" marker-end="url(#SvgjsMarker1761)"></path><rect id="SvgjsRect1763" width="71" height="16" x="300.95" y="433" fill="#ffffff"></rect><text id="SvgjsText1764" font-family="微软雅黑" text-anchor="middle" font-size="13px" width="71px" fill="#323232" font-weight="700" align="top" lineHeight="16px" anchor="middle" family="微软雅黑" size="13px" weight="700" font-style="" opacity="1" y="430.375" transform="rotate(0)"><tspan id="SvgjsTspan1765" dy="16" x="336.45"><tspan id="SvgjsTspan1766" style="text-decoration:;">1. lock token</tspan></tspan></text></g><g id="SvgjsG1767" transform="translate(410.56782334384854,436)"><path id="SvgjsPath1768" d="M 0 0L 20 0L 20 40L 0 40Z" stroke="rgba(50,50,50,1)" stroke-width="1" fill-opacity="1" fill="#ffffff"></path><g id="SvgjsG1769"><text id="SvgjsText1770" font-family="微软雅黑" text-anchor="middle" font-size="13px" width="0px" fill="#323232" font-weight="400" align="middle" lineHeight="125%" anchor="middle" family="微软雅黑" size="13px" weight="400" font-style="" opacity="1" y="8.875" transform="rotate(0)"></text></g></g><g id="SvgjsG1771"><path id="SvgjsPath1772" d="M430.5 441L452 441L452 466.8263518223331L433.1 466.8263518223331" stroke="#323232" stroke-width="2" fill="none" marker-end="url(#SvgjsMarker1773)"></path></g><g id="SvgjsG1775" transform="translate(448.16561514195587,440.75)"><path id="SvgjsPath1776" d="M 0 0L 36 0L 36 23L 0 23Z" stroke="none" fill="none"></path><g id="SvgjsG1777"><text id="SvgjsText1778" font-family="微软雅黑" text-anchor="middle" font-size="13px" width="36px" fill="#323232" font-weight="700" align="middle" lineHeight="125%" anchor="middle" family="微软雅黑" size="13px" weight="700" font-style="" opacity="1" y="0.375" transform="rotate(0)"><tspan id="SvgjsTspan1779" dy="16" x="18"><tspan id="SvgjsTspan1780" style="text-decoration:;">lock</tspan></tspan></text></g></g><g id="SvgjsG1781"><path id="SvgjsPath1782" d="M410.3302222155949 470.7860619515673L340.91511110779743 470.7860619515673L340.91511110779743 470.7860619515673L271 470.7860619515673" stroke-dasharray="10,5,3,5" stroke="#323232" stroke-width="2" fill="none" marker-end="url(#SvgjsMarker1783)"></path></g><g id="SvgjsG1785"><path id="SvgjsPath1786" d="M555 495.26146722824296L492.5057079528624 495.26146722824296L492.5057079528624 495.26146722824296L433.1114159057248 495.26146722824296" stroke="#323232" stroke-width="2" fill="none" marker-end="url(#SvgjsMarker1787)"></path><rect id="SvgjsRect1789" width="79" height="16" x="454.5557079528624" y="487.26146722824296" fill="#ffffff"></rect><text id="SvgjsText1790" font-family="微软雅黑" text-anchor="middle" font-size="13px" width="79px" fill="#323232" font-weight="700" align="top" lineHeight="16px" anchor="middle" family="微软雅黑" size="13px" weight="700" font-style="" opacity="1" y="484.63646722824296" transform="rotate(0)"><tspan id="SvgjsTspan1791" dy="16" x="494.0557079528624"><tspan id="SvgjsTspan1792" style="text-decoration:;">2. get message</tspan></tspan></text></g><g id="SvgjsG1793"><path id="SvgjsPath1794" d="M430.94887133007336 528.973939570023L491.2244356650367 528.973939570023L491.2244356650367 528.973939570023L552 528.973939570023" stroke-dasharray="10,5,3,5" stroke="#323232" stroke-width="2" fill="none" marker-end="url(#SvgjsMarker1795)"></path></g><g id="SvgjsG1797" transform="translate(410.56782334384854,493)"><path id="SvgjsPath1798" d="M 0 0L 20 0L 20 40L 0 40Z" stroke="rgba(50,50,50,1)" stroke-width="1" fill-opacity="1" fill="#ffffff"></path><g id="SvgjsG1799"><text id="SvgjsText1800" font-family="微软雅黑" text-anchor="middle" font-size="13px" width="0px" fill="#323232" font-weight="400" align="middle" lineHeight="125%" anchor="middle" family="微软雅黑" size="13px" weight="400" font-style="" opacity="1" y="8.875" transform="rotate(0)"></text></g></g><g id="SvgjsG1801" transform="translate(665.5678233438485,544)"><path id="SvgjsPath1802" d="M 0 0L 20 0L 20 40L 0 40Z" stroke="rgba(50,50,50,1)" stroke-width="1" fill-opacity="1" fill="#ffffff"></path><g id="SvgjsG1803"><text id="SvgjsText1804" font-family="微软雅黑" text-anchor="middle" font-size="13px" width="0px" fill="#323232" font-weight="400" align="middle" lineHeight="125%" anchor="middle" family="微软雅黑" size="13px" weight="400" font-style="" opacity="1" y="8.875" transform="rotate(0)"></text></g></g><g id="SvgjsG1805"><path id="SvgjsPath1806" d="M558 547L611.9488887394336 547L611.9488887394336 547L662.7977774788671 547" stroke="#323232" stroke-width="2" fill="none" marker-end="url(#SvgjsMarker1807)"></path><rect id="SvgjsRect1809" width="52" height="16" x="584.3988887394336" y="539" fill="#ffffff"></rect><text id="SvgjsText1810" font-family="微软雅黑" text-anchor="middle" font-size="13px" width="52px" fill="#323232" font-weight="700" align="top" lineHeight="16px" anchor="middle" family="微软雅黑" size="13px" weight="700" font-style="" opacity="1" y="536.375" transform="rotate(0)"><tspan id="SvgjsTspan1811" dy="16" x="610.3988887394336"><tspan id="SvgjsTspan1812" style="text-decoration:;">3. submit</tspan></tspan></text></g><g id="SvgjsG1813"><path id="SvgjsPath1814" d="M665.1252311481466 576.3095269530372L611.3126155740733 576.3095269530372L611.3126155740733 576.3095269530372L557 576.3095269530372" stroke-dasharray="10,5,3,5" stroke="#323232" stroke-width="2" fill="none" marker-end="url(#SvgjsMarker1815)"></path></g><g id="SvgjsG1817"><path id="SvgjsPath1818" d="M685.5 549L710 549L710 577L688.1 577" stroke="#323232" stroke-width="2" fill="none" marker-end="url(#SvgjsMarker1819)"></path></g><g id="SvgjsG1821" transform="translate(715,552)"><path id="SvgjsPath1822" d="M 0 0L 118 0L 118 24L 0 24Z" stroke="none" fill="none"></path><g id="SvgjsG1823"><text id="SvgjsText1824" font-family="微软雅黑" text-anchor="middle" font-size="13px" width="118px" fill="#323232" font-weight="700" align="middle" lineHeight="125%" anchor="middle" family="微软雅黑" size="13px" weight="700" font-style="" opacity="1" y="0.875" transform="rotate(0)"><tspan id="SvgjsTspan1825" dy="16" x="59"><tspan id="SvgjsTspan1826" style="text-decoration:;">mint mapping token</tspan></tspan></text></g></g><g id="SvgjsG1827" transform="translate(410.56782334384854,584)"><path id="SvgjsPath1828" d="M 0 0L 20 0L 20 40L 0 40Z" stroke="rgba(50,50,50,1)" stroke-width="1" fill-opacity="1" fill="#ffffff"></path><g id="SvgjsG1829"><text id="SvgjsText1830" font-family="微软雅黑" text-anchor="middle" font-size="13px" width="0px" fill="#323232" font-weight="400" align="middle" lineHeight="125%" anchor="middle" family="微软雅黑" size="13px" weight="400" font-style="" opacity="1" y="8.875" transform="rotate(0)"></text></g></g><g id="SvgjsG1831"><path id="SvgjsPath1832" d="M556 591L493 591L493 591L433.1 591" stroke="#323232" stroke-width="2" fill="none" marker-end="url(#SvgjsMarker1833)"></path><rect id="SvgjsRect1835" width="91" height="16" x="449.05" y="583" fill="#ffffff"></rect><text id="SvgjsText1836" font-family="微软雅黑" text-anchor="middle" font-size="13px" width="91px" fill="#323232" font-weight="700" align="top" lineHeight="16px" anchor="middle" family="微软雅黑" size="13px" weight="700" font-style="" opacity="1" y="580.375" transform="rotate(0)"><tspan id="SvgjsTspan1837" dy="16" x="494.55"><tspan id="SvgjsTspan1838" style="text-decoration:;">4. confirm result</tspan></tspan></text></g><g id="SvgjsG1839"><path id="SvgjsPath1840" d="M430.6339745962156 619.5L492.56698729810773 619.5L492.56698729810773 619.5L555 619.5" stroke-dasharray="10,5,3,5" stroke="#323232" stroke-width="2" fill="none" marker-end="url(#SvgjsMarker1841)"></path></g><g id="SvgjsG1843" transform="translate(665.5678233438485,712)"><path id="SvgjsPath1844" d="M 0 0L 20 0L 20 40L 0 40Z" stroke="rgba(50,50,50,1)" stroke-width="1" fill-opacity="1" fill="#ffffff"></path><g id="SvgjsG1845"><text id="SvgjsText1846" font-family="微软雅黑" text-anchor="middle" font-size="13px" width="0px" fill="#323232" font-weight="400" align="middle" lineHeight="125%" anchor="middle" family="微软雅黑" size="13px" weight="400" font-style="" opacity="1" y="8.875" transform="rotate(0)"></text></g></g><g id="SvgjsG1847"><path id="SvgjsPath1848" d="M267 715.03527618041L466.43185165257813 715.03527618041L466.43185165257813 715.03527618041L662.7637033051562 715.03527618041" stroke="#323232" stroke-width="2" fill="none" marker-end="url(#SvgjsMarker1849)"></path><rect id="SvgjsRect1851" width="75" height="16" x="427.3818516525781" y="707.03527618041" fill="#ffffff"></rect><text id="SvgjsText1852" font-family="微软雅黑" text-anchor="middle" font-size="13px" width="75px" fill="#323232" font-weight="700" align="top" lineHeight="16px" anchor="middle" family="微软雅黑" size="13px" weight="700" font-style="" opacity="1" y="704.41027618041" transform="rotate(0)"><tspan id="SvgjsTspan1853" dy="16" x="464.8818516525781"><tspan id="SvgjsTspan1854" style="text-decoration:;">1. burn token</tspan></tspan></text></g><g id="SvgjsG1855"><path id="SvgjsPath1856" d="M685.5 717L704 717L704 745L688.1 745" stroke="#323232" stroke-width="2" fill="none" marker-end="url(#SvgjsMarker1857)"></path></g><g id="SvgjsG1859" transform="translate(706,720)"><path id="SvgjsPath1860" d="M 0 0L 118 0L 118 24L 0 24Z" stroke="none" fill="none"></path><g id="SvgjsG1861"><text id="SvgjsText1862" font-family="微软雅黑" text-anchor="middle" font-size="13px" width="118px" fill="#323232" font-weight="700" align="middle" lineHeight="125%" anchor="middle" family="微软雅黑" size="13px" weight="700" font-style="" opacity="1" y="0.875" transform="rotate(0)"><tspan id="SvgjsTspan1863" dy="16" x="59"><tspan id="SvgjsTspan1864" style="text-decoration:;">burn mapping token</tspan></tspan></text></g></g><g id="SvgjsG1865"><path id="SvgjsPath1866" d="M555 778L610.2839116719242 778L610.2839116719242 778L665.5678233438485 778" stroke="#323232" stroke-width="2" fill="none" marker-end="url(#SvgjsMarker1867)"></path><rect id="SvgjsRect1869" width="79" height="16" x="570.7839116719243" y="770" fill="#ffffff"></rect><text id="SvgjsText1870" font-family="微软雅黑" text-anchor="middle" font-size="13px" width="79px" fill="#323232" font-weight="700" align="top" lineHeight="16px" anchor="middle" family="微软雅黑" size="13px" weight="700" font-style="" opacity="1" y="767.375" transform="rotate(0)"><tspan id="SvgjsTspan1871" dy="16" x="610.2839116719243"><tspan id="SvgjsTspan1872" style="text-decoration:;">2. get message</tspan></tspan></text></g><g id="SvgjsG1873" transform="translate(665.5678233438485,772)"><path id="SvgjsPath1874" d="M 0 0L 20 0L 20 40L 0 40Z" stroke="rgba(50,50,50,1)" stroke-width="1" fill-opacity="1" fill="#ffffff"></path><g id="SvgjsG1875"><text id="SvgjsText1876" font-family="微软雅黑" text-anchor="middle" font-size="13px" width="0px" fill="#323232" font-weight="400" align="middle" lineHeight="125%" anchor="middle" family="微软雅黑" size="13px" weight="400" font-style="" opacity="1" y="8.875" transform="rotate(0)"></text></g></g><g id="SvgjsG1877"><path id="SvgjsPath1878" d="M665.562177826491 806.5L612.0310889132455 806.5L612.0310889132455 806.5L558 806.5" stroke-dasharray="10,5,3,5" stroke="#323232" stroke-width="2" fill="none" marker-end="url(#SvgjsMarker1879)"></path></g><g id="SvgjsG1881" transform="translate(410.56782334384854,814)"><path id="SvgjsPath1882" d="M 0 0L 20 0L 20 40L 0 40Z" stroke="rgba(50,50,50,1)" stroke-width="1" fill-opacity="1" fill="#ffffff"></path><g id="SvgjsG1883"><text id="SvgjsText1884" font-family="微软雅黑" text-anchor="middle" font-size="13px" width="0px" fill="#323232" font-weight="400" align="middle" lineHeight="125%" anchor="middle" family="微软雅黑" size="13px" weight="400" font-style="" opacity="1" y="8.875" transform="rotate(0)"></text></g></g><g id="SvgjsG1885"><path id="SvgjsPath1886" d="M556 821L493 821L493 821L433.1 821" stroke="#323232" stroke-width="2" fill="none" marker-end="url(#SvgjsMarker1887)"></path><rect id="SvgjsRect1889" width="52" height="16" x="468.55" y="813" fill="#ffffff"></rect><text id="SvgjsText1890" font-family="微软雅黑" text-anchor="middle" font-size="13px" width="52px" fill="#323232" font-weight="700" align="top" lineHeight="16px" anchor="middle" family="微软雅黑" size="13px" weight="700" font-style="" opacity="1" y="810.375" transform="rotate(0)"><tspan id="SvgjsTspan1891" dy="16" x="494.55"><tspan id="SvgjsTspan1892" style="text-decoration:;">3. sumbit</tspan></tspan></text></g><g id="SvgjsG1893"><path id="SvgjsPath1894" d="M430.6339745962156 849.5L492.56698729810773 849.5L492.56698729810773 849.5L555 849.5" stroke-dasharray="10,5,3,5" stroke="#323232" stroke-width="2" fill="none" marker-end="url(#SvgjsMarker1895)"></path></g><g id="SvgjsG1897"><path id="SvgjsPath1898" d="M410.5 820L391 820L391 845.7059047744874L407.9 845.7059047744874" stroke="#323232" stroke-width="2" fill="none" marker-end="url(#SvgjsMarker1899)"></path></g><g id="SvgjsG1901" transform="translate(268,820)"><path id="SvgjsPath1902" d="M 0 0L 122 0L 122 28L 0 28Z" stroke="none" fill="none"></path><g id="SvgjsG1903"><text id="SvgjsText1904" font-family="微软雅黑" text-anchor="middle" font-size="13px" width="122px" fill="#323232" font-weight="700" align="middle" lineHeight="125%" anchor="middle" family="微软雅黑" size="13px" weight="700" font-style="" opacity="1" y="2.875" transform="rotate(0)"><tspan id="SvgjsTspan1905" dy="16" x="61"><tspan id="SvgjsTspan1906" style="text-decoration:;">redeem original token</tspan></tspan></text></g></g><g id="SvgjsG1907" transform="translate(665.5678233438485,860)"><path id="SvgjsPath1908" d="M 0 0L 20 0L 20 40L 0 40Z" stroke="rgba(50,50,50,1)" stroke-width="1" fill-opacity="1" fill="#ffffff"></path><g id="SvgjsG1909"><text id="SvgjsText1910" font-family="微软雅黑" text-anchor="middle" font-size="13px" width="0px" fill="#323232" font-weight="400" align="middle" lineHeight="125%" anchor="middle" family="微软雅黑" size="13px" weight="400" font-style="" opacity="1" y="8.875" transform="rotate(0)"></text></g></g><g id="SvgjsG1911"><path id="SvgjsPath1912" d="M558 863L611.9488887394336 863L611.9488887394336 863L662.7977774788671 863" stroke="#323232" stroke-width="2" fill="none" marker-end="url(#SvgjsMarker1913)"></path><rect id="SvgjsRect1915" width="88" height="16" x="566.3988887394336" y="855" fill="#ffffff"></rect><text id="SvgjsText1916" font-family="微软雅黑" text-anchor="middle" font-size="13px" width="88px" fill="#323232" font-weight="700" align="top" lineHeight="16px" anchor="middle" family="微软雅黑" size="13px" weight="700" font-style="" opacity="1" y="852.375" transform="rotate(0)"><tspan id="SvgjsTspan1917" dy="16" x="610.3988887394336"><tspan id="SvgjsTspan1918" style="text-decoration:;">4.confirm result</tspan></tspan></text></g><g id="SvgjsG1919"><path id="SvgjsPath1920" d="M665.1252311481466 892.3095269530372L611.3126155740733 892.3095269530372L611.3126155740733 892.3095269530372L557 892.3095269530372" stroke-dasharray="10,5,3,5" stroke="#323232" stroke-width="2" fill="none" marker-end="url(#SvgjsMarker1921)"></path></g></svg>